<svg width="120" height="119" viewBox="0 0 120 119" fill="none" xmlns="http://www.w3.org/2000/svg">
<path d="M60 29.75C56.3225 29.75 52.7276 30.8405 49.6699 32.8836C46.6121 34.9267 44.2289 37.8307 42.8216 41.2282C41.4143 44.6258 41.0461 48.3644 41.7635 51.9712C42.481 55.578 44.2519 58.8911 46.8522 61.4915C49.4526 64.0919 52.7657 65.8628 56.3726 66.5802C59.9794 67.2977 63.718 66.9295 67.1155 65.5221C70.5131 64.1148 73.417 61.7316 75.4602 58.6739C77.5033 55.6162 78.5938 52.0212 78.5938 48.3437C78.5938 43.4124 76.6348 38.683 73.1478 35.196C69.6608 31.709 64.9314 29.75 60 29.75Z" fill="#F5F5F5"/>
<path d="M60 7.4375C49.703 7.4375 39.6373 10.4909 31.0756 16.2116C22.514 21.9323 15.841 30.0634 11.9005 39.5765C7.96006 49.0897 6.92905 59.5578 8.93789 69.6569C10.9467 79.756 15.9052 89.0327 23.1863 96.3137C30.4673 103.595 39.744 108.553 49.8431 110.562C59.9423 112.571 70.4103 111.54 79.9235 107.599C89.4367 103.659 97.5677 96.986 103.288 88.4244C109.009 79.8627 112.063 69.797 112.063 59.5C112.047 45.697 106.557 32.4638 96.7964 22.7036C87.0362 12.9434 73.803 7.45325 60 7.4375ZM89.7203 92.6936C89.6462 87.8158 87.6588 83.1624 84.1864 79.7359C80.7141 76.3094 76.0346 74.3842 71.1563 74.375H48.8438C43.9655 74.3842 39.286 76.3094 35.8136 79.7359C32.3412 83.1624 30.3539 87.8158 30.2798 92.6936C23.5361 86.672 18.7804 78.7441 16.6425 69.9596C14.5046 61.1751 15.0853 51.9485 18.3078 43.5014C21.5302 35.0543 27.2424 27.7853 34.6879 22.6567C42.1334 17.5282 50.961 14.7821 60.0019 14.7821C69.0428 14.7821 77.8704 17.5282 85.3159 22.6567C92.7614 27.7853 98.4735 35.0543 101.696 43.5014C104.918 51.9485 105.499 61.1751 103.361 69.9596C101.223 78.7441 96.464 86.672 89.7203 92.6936Z" fill="#F5F5F5"/>
</svg>
